<?xml version="1.0" encoding="UTF-8" standalone="no"?>
<!-- Created with Inkscape (http://www.inkscape.org/) -->

<svg
   width="953.67517mm"
   height="370.88565mm"
   viewBox="0 0 953.67517 370.88565"
   version="1.1"
   id="svg5"
   xml:space="preserve"
   xmlns:inkscape="http://www.inkscape.org/namespaces/inkscape"
   xmlns:sodipodi="http://sodipodi.sourceforge.net/DTD/sodipodi-0.dtd"
   xmlns="http://www.w3.org/2000/svg"
   xmlns:svg="http://www.w3.org/2000/svg"><sodipodi:namedview
     id="namedview7"
     pagecolor="#ffffff"
     bordercolor="#000000"
     borderopacity="0.25"
     inkscape:showpageshadow="2"
     inkscape:pageopacity="0.0"
     inkscape:pagecheckerboard="0"
     inkscape:deskcolor="#d1d1d1"
     inkscape:document-units="mm"
     showgrid="false" /><defs
     id="defs2" /><g
     inkscape:label="Capa 1"
     inkscape:groupmode="layer"
     id="layer1"
     transform="translate(55.42526,-159.85824)"><path
       style="fill:#fef303;fill-opacity:1;stroke-width:0.83892"
       d="m 86.402019,433.36628 c 1.81838,-4.45199 3.306148,-8.25116 3.306148,-8.44264 0,-0.19151 -1.793173,-0.37465 -3.984875,-0.40708 -2.998271,-0.0443 -3.569476,-0.23749 -2.307019,-0.77994 0.922807,-0.39657 2.826099,-0.74754 4.229559,-0.77997 2.240403,-0.0517 2.828951,-0.62423 4.823814,-4.69162 1.249614,-2.54797 2.272047,-4.81304 2.272047,-5.03353 0,-0.97725 -3.341153,-0.27776 -3.960617,0.82907 -0.5869,1.04874 -7.663645,1.30212 -48.042249,1.72006 -26.044699,0.2695 -47.4503715,0.58656 -47.5681957,0.70438 -0.1179604,0.11799 0.9892352,1.70325 2.4600711,3.52319 1.47086905,1.8199 -2.9225848,-2.2594 -9.7632074,-9.06515 l -12.437492,-12.37404 h -8.358322 c -7.508186,0 -8.329657,-0.14942 -8.076918,-1.46815 0.246048,-1.28318 1.531746,-1.49795 10.20863,-1.70516 8.615087,-0.20577 9.792188,-0.39975 8.905558,-1.4681 -0.56753,-0.68383 -2.427827,-1.23107 -4.184917,-1.23107 -2.072449,0 -3.333924,-0.44484 -3.658289,-1.29013 -0.577262,-1.50439 1.35669,-2.48937 3.370451,-1.71664 1.151417,0.44185 1.20329,0.31907 0.316756,-0.74917 -0.583161,-0.70266 -2.115764,-1.27759 -3.405743,-1.27759 -5.23896,0 -4.99941,1.14996 -4.99941,-23.99901 v -22.98056 h -2.886725 c -1.587679,0 -3.120028,-0.37755 -3.405203,-0.83895 -0.285048,-0.46141 -3.705058,-0.83891 -7.599788,-0.83891 -5.735242,0 -7.081343,-0.23908 -7.081343,-1.25841 0,-1.02905 1.433168,-1.25836 7.864893,-1.25836 4.325696,0 9.044624,-0.2359 10.486513,-0.52435 l 2.621653,-0.52431 v -7.39945 -7.39946 l -3.984876,-0.31423 -3.984874,-0.31422 4.02489,-0.15116 4.024921,-0.15116 -0.249854,-5.24325 -0.249853,-5.24327 -2.536424,0.25303 c -1.395024,0.13912 -3.471343,-0.14208 -4.614072,-0.62483 -1.816416,-0.76748 -1.602994,-0.852 1.697479,-0.67247 l 3.775162,0.20546 0.272367,-3.3448 c 0.149658,-1.83966 0.648571,-3.5774 1.108548,-3.86169 1.313506,-0.81181 1.068188,-15.96325 -0.272047,-16.81313 -0.609732,-0.38657 -3.625948,-0.70865 -6.702695,-0.71574 -6.297317,-0.0157 -8.248107,-0.52277 -8.248107,-2.14928 0,-1.4302 5.979769,-1.99698 7.130838,-0.67587 0.629739,0.72278 2.407755,0.67877 7.130838,-0.17628 3.460563,-0.62661 8.057451,-1.15427 10.215353,-1.1726 3.549375,-0.0318 4.049239,-0.28568 5.24324,-2.67895 1.648651,-3.30476 1.649064,-3.87489 0.0031,-4.21393 -0.86618,-0.17851 0.980261,-2.28082 5.395815,-6.1437 3.691931,-3.22986 6.7383344,-6.15558 6.7697882,-6.50163 0.031716,-0.34606 -2.2708112,-0.62919 -5.1161572,-0.62919 -2.845349,0 -4.951853,-0.22165 -4.681167,-0.4922 0.27078,-0.27078 6.090744,-0.51176 12.933395,-0.53564 12.6040189,-0.044 12.9543847,-0.13545 4.1939527,-1.09224 -4.7573594,-0.51969 -4.8515933,-0.57847 -3.4353878,-2.14336 1.4079929,-1.55581 3.2064926,-1.60561 54.3878901,-1.50622 43.666169,0.0847 75.295788,0.74208 69.290718,1.43986 -2.41365,0.28062 3.73029,3.47958 6.71138,3.49459 1.61491,0.009 4.37208,0.25207 6.12701,0.542 2.50719,0.41433 3.07094,0.81675 2.63132,1.87837 -1.86093,4.49392 -1.32742,4.96019 6.12819,5.35642 6.5175,0.34635 4.12848,1.64249 -5.05788,2.74407 -4.54127,0.54459 -5.01491,0.818 -7.38569,4.26385 -2.48956,3.61841 -2.66338,5.69954 -0.40363,4.83238 0.63065,-0.24193 1.39588,-0.0368 1.70049,0.45611 0.32145,0.52013 -0.14205,0.89612 -1.10494,0.89612 -3.22707,0 -4.42934,1.11241 -7.24488,6.70336 -2.42184,4.80911 -3.24423,5.73153 -5.51491,6.18568 -1.46773,0.2936 -25.424697,0.5337 -53.237647,0.5337 H 11.8504 l -3.0170736,2.67114 c -2.8631018,2.53477 -3.0171049,2.94154 -3.0171049,7.96975 0,3.53996 0.3316907,5.29863 0.9992858,5.29863 0.6490806,0 0.5675923,0.36748 -0.2324141,1.04866 -1.0031852,0.85407 -1.1497054,2.87812 -0.7895422,10.9077 0.2431943,5.42252 0.1617025,9.8583 -0.1810477,9.85736 -0.342724,-8.6e-4 -0.4507194,10.81692 -0.2400244,24.03974 l 0.3831496,24.04153 2.284478,2.38452 2.2845075,2.38451 h 40.111311 40.111279 v -11.61211 -11.61214 l -3.243272,-0.97169 c -1.784167,-0.53446 -5.594653,-0.9717 -8.468092,-0.9717 -4.518951,0 -5.283731,-0.22671 -5.663235,-1.67786 -0.476434,-1.82189 -2.024129,-2.02308 -13.04212,-1.69536 l -5.668181,0.16861 -3.02389,-6.36745 c -2.454428,-5.16835 -3.381961,-6.36748 -4.925344,-6.36748 -1.045801,0 -2.371387,-0.56626 -2.945796,-1.25837 -0.73545,-0.88618 -2.813037,-1.28312 -7.023825,-1.342 -7.409672,-0.10368 -4.478335,-1.38404 3.458407,-1.5106 6.184724,-0.0986 6.272807,-0.33372 2.73713,-7.30595 -1.378379,-2.71815 -2.510931,-5.22517 -2.516765,-5.57123 -0.0063,-0.34605 22.587909,-0.6292 50.208332,-0.6292 H 140.6495 l -0.40094,2.09732 c -0.23717,1.24041 -0.97367,2.09729 -1.80278,2.09729 -0.77103,0 -3.16324,1.79322 -5.31607,3.98487 l -3.91423,3.98489 0.0317,32.21686 0.0317,32.21683 -11.39601,10.45386 c -6.26783,5.74967 -11.39603,10.76674 -11.39603,11.14911 0,0.38235 1.60441,0.83972 3.56541,1.01633 2.77785,0.25018 2.394,0.35352 -1.73778,0.46769 -2.91675,0.0805 -5.78635,0.61848 -6.37693,1.19524 -2.654724,2.59267 -17.491532,15.33744 -18.129832,15.57345 -0.391394,0.14452 0.776131,-3.3794 2.594544,-7.83137 z M -10.96241,389.85553 c 0,-0.1782 -1.132553,-0.49049 -2.516765,-0.69363 -1.384212,-0.20324 -2.516765,-0.0571 -2.516765,0.32425 0,0.38149 1.132553,0.69362 2.516765,0.69362 1.384212,0 2.516765,-0.14592 2.516765,-0.32424 z m -8.80866,-1.35358 c -2.355787,-1.01232 -5.659177,-1.01232 -5.03353,0 0.28505,0.4614 1.911886,0.81237 3.614914,0.77994 2.495522,-0.0475 2.770835,-0.19881 1.418616,-0.77994 z m 153.58759,-59.4279 c -1.79137,-0.34957 -2.51972,0.28537 -1.75215,1.52722 0.41502,0.67146 0.94907,0.62803 1.89248,-0.15378 1.18418,-0.9815 1.17026,-1.11753 -0.14045,-1.3733 z m 756.22284,105.08231 c -3.46056,-2.02413 -7.14134,-3.68661 -8.17949,-3.69432 -1.05436,-0.007 -1.88757,-0.53388 -1.88757,-1.19168 0,-0.64765 -2.92573,-3.05411 -6.50163,-5.34765 l -6.50165,-4.17005 -11.32545,-0.50862 c -12.95175,-0.58167 -13.42273,-0.62929 -13.42273,-1.35798 0,-0.29551 -0.99856,-1.7427 -2.21894,-3.21586 -2.18986,-2.64334 -2.31653,-2.67849 -9.6476,-2.67849 -4.3932,0 -7.42866,-0.34282 -7.42866,-0.83892 0,-0.49394 2.95257,-0.83894 7.17991,-0.83894 h 7.17992 l -4.45345,-5.39657 c -2.44938,-2.96812 -4.88621,-5.42197 -5.41514,-5.45299 -0.52896,-0.0318 -2.1723,-1.47208 -3.65192,-3.20233 -1.47959,-1.73028 -3.6894,-3.73983 -4.9107,-4.46564 -2.82306,-1.67771 -8.63672,-9.25936 -8.13175,-10.60465 0.21023,-0.56011 -1.30344,-3.08781 -3.36382,-5.61714 -3.47423,-4.26497 -4.03471,-4.61729 -7.72211,-4.85409 -2.18672,-0.14051 -3.92213,-0.63284 -3.85643,-1.09425 0.0653,-0.4614 0.38195,-2.44336 0.70291,-4.40433 l 0.58349,-3.56541 h -3.70905 c -2.03999,0 -3.99442,0.28315 -4.34317,0.6292 -0.34886,0.34606 -4.09252,0.62916 -8.31933,0.62916 h -7.6852 l 0.18771,2.51677 0.1877,2.51676 -1.19856,-2.51676 c -0.65922,-1.38421 -1.2156,-3.46257 -1.23641,-4.61852 -0.0285,-1.65401 -0.66334,-2.29754 -2.97407,-3.02078 l -2.93622,-0.91901 v 20.79722 20.79721 l 3.14597,0.3291 c 2.58806,0.27077 2.36492,0.35407 -1.25841,0.47007 l -4.40431,0.14104 v 3.82465 c 0,2.10357 0.33035,3.6205 0.73413,3.37093 0.40377,-0.24953 0.97977,1.08252 1.28003,2.96013 l 0.54588,3.41385 5.01339,-0.28313 c 4.18714,-0.23655 5.01314,-0.0583 5.0119,1.08149 0,1.23108 -2.36293,1.35426 -24.12051,1.25841 l -24.11899,-0.1063 -0.26126,-1.83598 c -0.15727,-1.10395 -0.99336,-1.97824 -2.09732,-2.19281 l -1.83598,-0.3568 1.84654,-0.11415 c 1.8084,-0.11189 1.85178,-0.38713 2.09732,-13.32722 0.13789,-7.26715 0.14993,-33.88191 0.0285,-59.14396 -0.20611,-42.30549 -0.33465,-45.93096 -1.62842,-45.93096 -1.29745,0 -1.29975,-0.0803 -0.0318,-1.04864 1.4682,-1.12038 1.65595,-3.69517 1.52936,-20.97304 l -0.0663,-9.0184 h -3.77516 c -2.07632,0 -3.77514,-0.3775 -3.77514,-0.83894 0,-0.72258 41.21225,-1.04961 124.46701,-0.98765 l 9.95422,0.007 2.66954,2.58745 c 1.87598,1.81825 3.48456,2.58743 5.41121,2.58743 2.99932,0 5.98713,1.27071 5.98713,2.54626 0,0.4452 -1.22691,0.81656 -2.72651,0.82527 l -2.72648,0.0157 5.1597,5.01766 5.15978,5.01768 h 6.42498 c 4.0696,0 6.23485,0.30756 5.90642,0.83892 -0.28504,0.4614 -2.85568,0.84471 -5.71222,0.85178 -3.52882,0.009 -4.79855,0.26286 -3.96082,0.79258 1.03634,0.65543 1.28642,5.54307 1.56854,30.65352 l 0.33566,29.87379 -8.56388,8.55319 -8.56379,8.55323 7.41472,0.61344 c 4.07808,0.33737 8.16976,0.72892 9.09256,0.87006 0.92285,0.14103 -6.81623,0.55756 -17.19786,0.92533 -10.38167,0.36778 -18.94268,0.73533 -19.02458,0.81676 -0.23369,0.23241 2.78773,8.92105 3.26978,9.4031 0.23716,0.23716 2.27464,0.48771 4.52767,0.55659 2.25292,0.0688 3.43563,0.27268 2.62818,0.45262 -0.80746,0.1801 -1.46811,0.52561 -1.46811,0.76798 0,0.24224 3.28957,4.55611 7.31017,9.58609 5.67298,7.09726 7.78665,9.16721 9.43786,9.24274 1.50118,0.0688 1.68172,0.21275 0.61318,0.4899 -2.00243,0.51908 -1.7885,0.95418 3.61181,7.34586 4.97421,5.88742 3.91392,5.46917 14.66905,5.78594 3.21423,0.0948 4.24652,0.45466 4.45888,1.55504 0.2378,1.23144 -0.61225,1.46627 -6.07331,1.67782 l -6.34954,0.24604 5.66583,8.15884 c 3.11625,4.48733 7.67712,11.03314 10.13526,14.5462 2.45811,3.51305 4.3457,6.50612 4.19463,6.65122 -0.15116,0.14522 -3.10612,-1.39231 -6.56668,-3.41644 z M 760.23219,390.4684 c -0.56795,-0.22988 -1.7005,-0.24382 -2.51678,-0.0318 -0.81617,0.21275 -0.35151,0.40071 1.03271,0.4178 1.38424,0.0157 2.0521,-0.15692 1.48407,-0.38673 z m 72.53207,-0.0621 c -1.74058,-0.18167 -4.38321,-0.17851 -5.87246,0.007 -1.48926,0.18547 -0.0653,0.33389 3.16466,0.33019 3.22986,-0.003 4.44837,-0.15535 2.7078,-0.33698 z m 22.84634,-1.52475 c -0.60073,-0.72393 -1.29563,-0.94688 -1.57079,-0.50403 -0.27141,0.43674 -1.43732,0.96945 -2.59083,1.18383 -1.33852,0.24889 -0.77024,0.43112 1.57078,0.50404 3.22147,0.10019 3.53698,-0.0438 2.59084,-1.18384 z m -19.92683,-63.04968 c 3.61452,-3.52947 4.04145,-5.27688 1.2938,-5.29559 -1.24782,-0.009 -1.53387,-0.23749 -0.84412,-0.67549 1.48908,-0.94564 2.57079,-7.67966 2.4317,-15.13803 l -0.11957,-6.405 -2.51677,-0.0967 c -4.07077,-0.15639 -4.26649,-0.22766 -6.61984,-2.40867 l -2.25074,-2.08597 -31.00915,-0.56638 -31.00913,-0.56636 v 18.17236 18.17238 h 33.73118 33.73129 l 3.18127,-3.10649 z m -693.51876,87.59682 c 0.71268,-2.46354 5.74494,-14.37885 9.81182,-23.23226 1.79729,-3.91275 2.90416,-7.2353 2.45966,-7.38345 -0.44454,-0.14802 0.0127,-1.09953 1.01593,-2.11409 1.00328,-1.01457 2.35807,-3.47797 3.01064,-5.47423 1.02728,-3.1425 1.0249,-3.73182 -0.019,-4.39149 -0.95676,-0.60544 -0.85949,-0.76741 0.47374,-0.78861 1.74238,-0.0284 1.85053,-0.24099 10.95182,-21.60126 l 3.6639,-8.59894 -4.37164,-0.13406 c -3.15928,-0.0971 -3.55733,-0.21782 -1.43539,-0.43619 7.06752,-0.72676 7.55223,-1.3521 14.18913,-18.30526 6.51585,-16.64401 18.02882,-42.36555 18.96285,-42.36555 1.34246,0 3.8695,-6.11089 2.80312,-6.77845 -0.88292,-0.55269 -0.14649,-3.09373 1.43906,-4.96647 0.58605,-0.6921 1.3246,-2.29654 1.64126,-3.56541 l 0.57578,-2.30702 h -7.64123 c -4.53487,0 -7.64123,-0.34105 -7.64123,-0.83895 0,-0.54505 13.14986,-0.87917 37.54173,-0.95391 41.35714,-0.12655 38.92958,-0.15273 42.89944,0.46267 3.57573,0.55444 4.4467,1.33019 1.49348,1.33019 -2.75123,0 -2.77017,0.65891 -0.18961,6.60646 1.12605,2.59543 3.05257,7.17283 4.28115,10.17195 1.22857,2.99916 3.65347,8.85064 5.38872,13.00331 1.73521,4.15263 5.63291,13.59053 8.66154,20.97302 3.02862,7.38251 9.15414,22.29434 13.61227,33.13739 4.45811,10.84307 10.54986,25.7549 13.53724,33.13739 2.98736,7.38255 7.48364,18.37691 9.99171,24.43194 2.50811,6.05505 4.56018,11.43464 4.56018,11.95464 0,0.67494 -5.74384,0.94541 -20.07758,0.94541 -18.98197,0 -20.10518,-0.0869 -20.583,-1.59247 -0.34336,-1.08172 -1.77398,-1.8571 -4.46089,-2.41758 l -3.95543,-0.82512 3.24379,-0.0992 c 3.63063,-0.11101 3.60904,0.15535 0.60331,-7.43971 -0.95862,-2.42239 -1.40234,-4.40433 -0.98599,-4.40433 0.41632,0 0.55627,-0.76747 0.31105,-1.70543 -0.61332,-2.34535 2.00571,-5.00595 4.92768,-5.00595 1.31272,0 2.38673,-0.34982 2.38673,-0.77743 0,-0.42757 0.66066,-0.96801 1.46812,-1.20104 0.80747,-0.23304 -1.98398,-0.21497 -6.20324,0.0396 -7.23084,0.43679 -7.70303,0.36355 -8.22326,-1.27551 -0.32153,-1.0131 -2.54693,-2.71857 -5.33192,-4.08614 l -4.78003,-2.34725 -29.78172,-0.41946 -29.78171,-0.41946 -0.26824,-1.88759 c -0.21339,-1.50289 -0.81184,-1.88966 -2.93622,-1.89793 -2.12033,-0.009 -3.05728,-0.61113 -4.56344,-2.93625 -1.04241,-1.60922 -2.3835,-2.92583 -2.98023,-2.92583 -0.83035,0 -3.88379,6.43308 -4.38008,9.22816 -0.0409,0.23082 -0.7122,1.88122 -1.49163,3.66785 -0.7794,1.78662 -1.41713,3.41525 -1.41713,3.61916 0,0.20389 -0.94379,2.43411 -2.0973,4.95594 -2.4967,5.45835 -2.46293,5.1558 -0.6292,5.63499 1.17044,0.30597 1.10763,0.40342 -0.30978,0.48101 -1.33815,0.0733 -2.32386,1.35611 -3.98491,5.18612 -1.21382,2.79888 -2.20695,5.25266 -2.20695,5.45295 0,0.2004 2.07635,0.36417 4.61407,0.36417 2.53776,0 4.61407,0.37751 4.61407,0.83895 0,0.46549 -2.22727,0.8389 -5.00401,0.8389 -4.14445,0 -5.15817,0.2879 -5.90145,1.67688 -0.8605,1.60784 -1.74399,1.6756 -21.4687,1.6468 l -20.57127,-0.0286 0.53709,-1.85654 z M 267.18309,348.4433 c -0.30565,-0.80745 -2.89439,-7.4045 -5.75248,-14.66008 -5.04704,-12.81249 -5.26892,-13.19585 -7.71331,-13.32725 -1.99901,-0.10753 -2.12844,-0.21023 -0.6292,-0.49885 2.31772,-0.44641 2.32117,-0.65768 0.0979,-6.00746 -1.10182,-2.65135 -2.31091,-4.31142 -3.14592,-4.31931 -1.00901,-0.009 -1.08369,-0.18581 -0.2917,-0.68859 0.83265,-0.52851 0.67117,-1.62246 -0.74107,-5.02069 -0.9931,-2.38972 -2.30283,-4.34495 -2.91054,-4.34495 -1.72306,0 -2.79223,-2.60171 -1.96417,-4.77965 0.90296,-2.37496 -0.11694,-2.54244 -1.5461,-0.25396 -1.47088,2.35524 -4.57022,2.08661 -6.90484,-0.59845 l -1.9792,-2.27626 -0.77039,2.486 c -0.4237,1.36732 -2.01375,5.31738 -3.53345,8.77791 -1.51973,3.46056 -3.73448,8.557 -4.92169,11.32545 l -2.15859,5.03353 1.85726,0.54556 c 1.83088,0.53785 1.8319,0.54676 0.0723,0.6292 -2.46851,0.11572 -2.90991,0.84808 -7.29732,12.10825 -3.68243,9.45085 -3.80358,10.02574 -2.52448,11.97789 1.2648,1.93034 1.46006,1.97429 3.32917,0.7496 2.1606,-1.41567 2.427,-0.85472 1.16743,2.45823 l -0.81818,2.15191 h 24.81715 c 23.28795,0 24.78294,-0.0904 24.26127,-1.46812 z m 83.15,66.34467 c -0.30756,-0.30755 -0.55927,-17.48446 -0.55927,-38.17088 v -37.61163 h -3.30616 c -1.81842,0 -3.53951,-0.37752 -3.82465,-0.83896 -0.31676,-0.51242 0.97002,-0.8389 3.30614,-0.8389 h 3.82467 v -18.80585 c 0,-14.25966 -0.25334,-18.90808 -1.04863,-19.22892 -0.83895,-0.33854 -0.83895,-0.43639 0,-0.48938 0.70213,-0.0443 1.04863,-1.57252 1.04863,-4.6246 0,-4.32873 -0.11643,-4.57593 -2.30704,-4.9078 l -2.30702,-0.34952 2.30702,-0.1255 c 2.21552,-0.12079 2.30704,-0.30471 2.30704,-4.64191 0,-3.81067 0.2622,-4.58478 1.67785,-4.955 1.28519,-0.3361 1.67786,-1.14431 1.67786,-3.45353 0,-2.90197 -0.11765,-3.01951 -3.14597,-3.14126 -1.73028,-0.0695 -4.18083,-0.0459 -5.4457,0.0527 -1.26483,0.0986 -3.14202,-0.41077 -4.17153,-1.13185 -1.63834,-1.14756 -1.68035,-1.31111 -0.33702,-1.31111 1.01961,0 1.37271,-0.42239 1.05192,-1.25836 -0.29424,-0.76651 -0.002,-1.25839 0.74918,-1.25839 2.06972,0 1.39217,-1.41003 -2.12365,-4.41943 -1.84562,-1.57978 -3.35568,-3.11927 -3.35568,-3.42105 0,-0.30186 12.03799,-0.54873 26.75104,-0.54873 h 26.75104 l 3.4675,4.40433 c 1.90711,2.4224 5.96913,7.80199 9.0267,11.95466 3.05758,4.15263 7.01368,9.20789 8.79133,11.23381 1.77766,2.02594 3.2334,4.10226 3.23499,4.61405 0.002,0.51182 2.64419,3.82282 5.87243,7.3578 3.22829,3.53499 5.8696,6.67916 5.8696,6.98705 0,0.58814 9.73421,12.75225 15.95705,19.94028 l 2.11481,2.44287 13.86914,-17.89874 c 7.62801,-9.84428 16.22556,-21.0132 19.10565,-24.8198 l 5.23653,-6.92111 h 3.95164 c 3.78182,0 3.99112,-0.1262 4.87064,-2.93621 0.87127,-2.78365 0.81653,-2.93626 -1.05309,-2.93626 -1.08466,0 -1.97212,-0.28662 -1.97212,-0.63684 0,-0.3503 2.01072,-3.27603 4.46828,-6.50163 l 4.46832,-5.8648 11.68093,-0.41946 c 6.42453,-0.23082 17.34365,-0.23082 24.26474,0 12.41507,0.41384 12.54885,0.43864 9.97552,1.84802 -3.49903,1.91636 -4.49237,4.70632 -4.86792,13.67203 -0.40979,9.78371 0.14907,13.82613 1.92073,13.89539 1.02722,0.04 0.94951,0.22036 -0.31707,0.73459 -1.64722,0.669 -1.67786,1.46786 -1.67786,43.78049 v 43.09904 l 4.00549,0.25651 c 4.98464,0.31927 4.40664,1.8408 -0.69931,1.8408 -3.16635,0 -3.72564,0.25175 -3.72564,1.67782 0,1.23043 -0.55927,1.67786 -2.09729,1.67786 -1.98288,0 -2.09728,0.25175 -2.09728,4.61407 0,4.33264 0.12498,4.61408 2.04778,4.61408 1.12627,0 2.25777,0.33975 2.51441,0.75502 0.25652,0.41527 0.22037,5.88924 -0.0805,12.16435 l -0.54717,11.40936 h -18.2235 c -14.66417,0 -18.41535,-0.23115 -19.20585,-1.1837 -0.67806,-0.817 -0.70752,-1.35355 -0.0951,-1.73204 0.60755,-0.37547 0.87807,-15.61973 0.85801,-48.34877 -0.019,-29.67737 -0.32885,-47.61531 -0.81942,-47.31211 -0.43454,0.26856 -3.14819,3.39932 -6.03024,6.95723 -2.88207,3.55787 -5.45531,6.65764 -5.71832,6.88834 -1.99562,1.75063 -6.58868,8.23409 -6.14644,8.67631 0.30344,0.30345 0.14523,0.55183 -0.35164,0.55183 -0.83679,0 -8.65847,8.98086 -15.14437,17.38878 -1.92467,2.49502 -3.39062,3.58428 -4.82379,3.58428 -1.1895,0 -2.05888,0.48799 -2.05888,1.15564 0,0.63564 -0.58415,1.64046 -1.29809,2.23299 -0.94948,0.78798 -1.0328,1.24127 -0.31042,1.6878 0.71779,0.44362 0.55668,1.20567 -0.58947,2.78818 -1.21594,1.67883 -2.07771,2.07534 -3.76178,1.73087 -1.66504,-0.3406 -2.4941,0.0253 -3.48644,1.54019 -1.51403,2.31066 -2.11006,6.4288 -1.15426,7.97529 0.41818,0.67666 -0.29077,2.15949 -1.91849,4.01357 -2.24959,2.56207 -2.57834,3.55733 -2.55509,7.73501 0.0253,4.39845 0.12847,4.66006 1.25841,3.16617 0.67743,-0.89567 1.23171,-1.25095 1.23171,-0.78954 0,1.43457 -2.34564,4.12718 -3.01352,3.45929 -0.34861,-0.34865 -0.55512,-2.8019 -0.45884,-5.45168 0.15832,-4.35148 -0.0754,-5.08164 -2.41346,-7.54427 -1.42366,-1.49957 -3.15791,-2.72647 -3.85385,-2.72647 -0.69597,0 -1.05908,-0.33383 -0.80691,-0.74184 0.59844,-0.96828 -5.20944,-11.50697 -8.812,-15.98986 -2.32887,-2.89799 -2.60164,-3.63433 -1.58462,-4.27758 0.94864,-0.59999 0.75075,-0.7876 -0.86882,-0.82359 -1.55955,-0.0346 -3.05373,-1.32853 -5.82747,-5.04638 -2.05163,-2.74986 -4.22235,-4.99979 -4.82383,-4.99979 -0.60148,0 -1.09362,-0.32937 -1.09362,-0.73199 0,-0.66763 -4.38377,-6.49998 -10.95748,-14.5783 -1.40799,-1.73031 -3.2937,-3.14597 -4.19048,-3.14597 -0.89675,0 -1.63048,-0.3775 -1.63048,-0.83894 0,-0.4614 0.40923,-0.83891 0.90942,-0.83891 0.90556,0 -1.26775,-2.90398 -7.51684,-10.04411 l -3.28399,-3.75223 -0.12742,41.25091 -0.12742,41.2509 4.86339,0.30375 c 4.73881,0.29615 4.70758,0.30788 -1.21882,0.46252 l -6.08219,0.15849 v 4.16825 c 0,3.36048 0.24383,4.07471 1.2584,3.6854 0.79683,-0.30565 1.25836,0.0122 1.25836,0.86524 0,1.10982 1.03804,1.34813 5.87248,1.34813 7.52032,0 7.69286,1.52144 0.20958,1.84923 -5.14529,0.22543 -5.68723,0.42056 -5.93081,2.13564 l -0.26792,1.88756 h -17.83864 c -9.81126,0 -18.09034,-0.25175 -18.39793,-0.55927 z m 211.4289,-10.89643 c -0.28474,-6.30067 -0.32075,-11.77462 -0.0799,-12.16435 0.24098,-0.38975 2.02011,-0.72007 3.95387,-0.73412 2.79607,-0.019 3.21534,-0.20071 2.04778,-0.8806 -0.94932,-0.55296 -1.46812,-1.87796 -1.46812,-3.74965 0,-2.68919 0.19342,-2.90049 2.72648,-2.97816 6.67087,-0.20452 6.67087,-1.43 0,-1.5106 -6.27417,-0.0758 -6.92109,-0.23653 -6.92109,-1.71961 0,-1.40315 -0.68643,-1.67178 -4.82379,-1.88758 -6.24719,-0.32581 -6.24661,-1.85521 8.4e-4,-2.18104 l 4.82463,-0.25175 -0.16163,-42.8637 c -0.15884,-42.12305 -0.19089,-42.87134 -1.84349,-43.30354 -1.54377,-0.4037 -1.55867,-0.48296 -0.18137,-0.96608 1.09891,-0.38547 1.56684,-1.58236 1.74881,-4.47314 l 0.24859,-3.94682 -3.47158,-0.12183 c -3.38674,-0.11887 -3.3556,-0.14244 1.27493,-0.96304 4.54153,-0.80489 4.7605,-0.96114 5.07062,-3.61761 0.26697,-2.28645 0.0222,-2.8197 -1.39081,-3.02183 -1.50428,-0.21529 -1.74542,-0.94105 -1.963,-5.90818 l -0.24794,-5.66273 h -4.57574 c -2.51667,0 -4.57574,-0.37749 -4.57574,-0.83893 0,-0.55311 25.88464,-0.83892 75.97607,-0.83892 h 75.97608 l -1.84125,3.56541 c -1.0127,1.96098 -2.35813,4.56747 -2.98991,5.79218 -1.60175,3.10505 -1.52937,3.22624 1.92739,3.22624 3.93488,0 3.323,0.65662 -1.00647,1.08008 -2.89228,0.28282 -3.54761,0.75517 -5.00579,3.60758 -0.92281,1.80516 -2.11795,3.56622 -2.65587,3.91343 -0.93979,0.6067 -6.15283,8.61186 -6.15283,9.44834 0,0.22384 2.24282,0.40682 4.98405,0.40682 2.74119,0 5.18568,0.32637 5.43221,0.72521 0.80391,1.30076 -9.33339,1.74581 -52.99151,2.3264 l -42.99473,0.5718 v 13.70835 13.70837 h 45.7212 c 25.14671,0 45.72126,0.19626 45.72126,0.43613 0,0.23971 -0.96648,1.96708 -2.14767,3.83823 -1.49962,2.37553 -1.89381,3.708 -1.30636,4.4158 0.52646,0.63436 0.55013,1.47403 0.063,2.24395 -1.37574,2.17522 -0.89269,2.48672 4.02001,2.59236 4.72289,0.10141 4.67461,0.1234 -2.30703,1.04865 -5.95379,0.78895 -7.11161,1.18725 -7.01432,2.41302 0.0641,0.80747 -0.40542,1.46812 -1.04338,1.46812 -1.28081,0 -5.45837,5.38294 -7.97561,10.2768 l -1.61816,3.14595 -29.13545,0.007 c -16.02455,0.002 -32.24997,0.24732 -36.05659,0.54381 l -6.9211,0.53877 v 14.55681 14.55678 h 55.36882 c 30.45284,0 55.36882,0.16704 55.36882,0.37151 0,0.20419 -0.76257,1.66389 -1.69454,3.24353 -2.11472,3.58412 -1.45907,5.61307 1.81383,5.61307 2.19655,0 2.36149,0.17757 1.55857,1.67785 -0.58427,1.09172 -1.75656,1.67786 -3.35571,1.67786 -1.59913,0 -2.77141,0.58613 -3.35568,1.67782 -0.49387,0.92284 -1.62563,1.67785 -2.51502,1.67785 -1.03569,0 -2.83479,1.79318 -5.00402,4.98748 -1.86282,2.74313 -3.38693,5.21224 -3.38693,5.48696 0,0.27458 -0.82604,1.61671 -1.83563,2.98224 l -1.83556,2.48279 H 627.00929 562.28 Z m 333.3109,2.22764 c 0,-0.46144 0.84941,-0.83314 1.88757,-0.82611 1.52635,0.009 1.64681,0.16844 0.6292,0.82611 -1.6265,1.0511 -2.51677,1.0511 -2.51677,0 z m -83.05323,-8.8087 c -0.82029,-0.98844 -0.82316,-1.25836 -0.0122,-1.25836 0.62463,0 0.81633,-0.5605 0.48612,-1.42109 -0.478,-1.24555 -0.33361,-1.22948 1.16864,0.13003 2.05476,1.85955 2.3217,3.66873 0.29838,2.02296 -1.2396,-1.00827 -1.34707,-0.9689 -0.86528,0.31676 0.67465,1.8003 0.30503,1.87244 -1.07499,0.20958 z m -35.8639,-27.00415 c 0.80746,-0.21117 2.12876,-0.21117 2.93623,0 0.80745,0.21117 0.14679,0.38366 -1.46812,0.38366 -1.61491,0 -2.27556,-0.17281 -1.46811,-0.38366 z M 336.19378,337.59358 c 0.60562,-0.24224 1.32917,-0.21243 1.60793,0.0663 0.27872,0.27871 -0.21688,0.47703 -1.10109,0.44064 -0.97729,-0.0403 -1.17606,-0.23908 -0.50684,-0.50688 z M 149.27159,265.18045 c 0,-0.4614 0.3998,-0.8389 0.88844,-0.8389 0.48864,0 0.6551,0.3775 0.36993,0.8389 -0.28505,0.46144 -0.68494,0.83896 -0.88841,0.83896 -0.20356,0 -0.36996,-0.37752 -0.36996,-0.83896 z m 178.53299,-4.76765 c 0.60558,-0.24224 1.32917,-0.21245 1.60793,0.0663 0.27872,0.27873 -0.21688,0.47708 -1.1011,0.44064 -0.97731,-0.0403 -1.17607,-0.23907 -0.50683,-0.50684 z m 384.80287,-0.26572 c 2.33128,-1.00176 4.61407,-1.00176 4.61407,0 0,0.46144 -1.4157,0.8124 -3.14595,0.77997 -2.52366,-0.0473 -2.81405,-0.20165 -1.46812,-0.77997 z"
       id="path302-6"
       sodipodi:nodetypes="cssssssssssscsssssssssscsssssccccccccccsssccsscssscssscssssscccssssssssssscsssssssccccccccssscsssssscscssscccssssssccssssssssscssccccsscsssssscscssssscscssscccscscccsscssscscsccscsscscscssccsssscccsscsscccsssssssssscsssscsssccccccccccccsssssscsscssccccccccscssssccscscssssscsscssssssssssssscssssssscsscccccsssssssssssssscccccsscsssssssscssscsssssscscccscssscsssssccsssssssssssscssssssscsscssssscccssscscsssssssscssscsssssssssssscsccsssssssssssssssssscccsscsssssscscccscssssssscsssscssssscssscsssssssssscccssssssssssccccccsssssssssssccccscsscssssscccsscsssssssssssssssssss"
       inkscape:export-filename="torneo_gamer_logo.svg"
       inkscape:export-xdpi="102.35162"
       inkscape:export-ydpi="102.35162" /><path
       style="fill:#03eafe;fill-opacity:1;stroke-width:0.83892"
       d="m 247.29872,530.16727 c -0.30757,-0.30756 -0.55929,-3.90586 -0.55929,-7.99611 0,-5.65695 0.28568,-7.54642 1.19353,-7.89479 0.99183,-0.3806 0.95302,-0.69851 -0.22988,-1.88138 -2.00944,-2.00944 -7.44845,-3.4688 -13.22535,-3.54855 -4.86675,-0.0672 -4.90077,-0.0843 -2.41943,-1.22054 1.38421,-0.63384 5.25374,-1.16942 8.59894,-1.19026 l 6.08219,-0.0377 0.0995,-4.82379 c 0.0545,-2.65311 0.0621,-5.20132 0.0157,-5.66273 -0.11154,-1.12823 3.89901,-2.93314 6.5531,-2.94906 1.17689,-0.007 2.66158,-0.34332 3.2993,-0.74721 0.90987,-0.57627 0.77182,-0.85744 -0.64136,-1.30592 -0.99052,-0.31423 -1.59872,-0.89876 -1.35159,-1.29858 0.24699,-0.39981 -0.21943,-1.10228 -1.03649,-1.56101 -2.11559,-1.18763 -0.51101,-1.58959 8.16183,-2.04446 14.23095,-0.74639 40.71299,-3.39844 41.73634,-4.17974 0.65789,-0.50228 1.04866,-2.9295 1.04866,-6.51378 0,-4.72108 -0.25493,-5.78648 -1.46812,-6.13523 -0.80745,-0.2321 -9.02914,-0.68015 -18.27042,-0.99565 -18.15897,-0.61987 -18.37279,-0.57681 -18.9812,3.82136 -0.36666,2.6507 -2.53193,2.8891 -18.95609,2.08714 -12.26472,-0.59887 -16.60175,-2.08714 -6.08215,-2.08714 h 5.87243 v -4.61407 c 0,-3.11445 -0.34082,-4.62472 -1.04866,-4.64689 -0.57674,-0.019 0.084,-0.5429 1.46812,-1.16632 1.38425,-0.62342 4.58021,-3.25126 7.10217,-5.83961 l 4.5854,-4.70613 h 28.15562 c 25.21705,0 28.36956,0.14994 30.20573,1.43596 l 2.05014,1.43599 -1.87924,0.45161 c -1.79611,0.43162 -1.71669,0.63722 1.79673,4.65011 l 3.67592,4.19856 -0.0122,12.47084 -0.0122,12.47085 -3.69751,3.40825 c -3.59926,3.31766 -3.64948,3.43399 -1.89016,4.37555 1.49271,0.79889 -0.28759,1.13956 -10.22642,1.95706 -24.10124,1.98237 -39.74157,3.72164 -40.76686,4.53348 -0.64251,0.50874 -1.04865,2.90248 -1.04865,6.18056 v 5.35029 h 26.05607 c 15.43403,0 25.86378,0.31104 25.58438,0.76323 -0.93197,1.50797 0.59507,3.43253 2.76947,3.49032 2.7511,0.0733 6.41889,1.467 4.10485,1.55995 -1.2416,0.0498 -1.46811,0.90036 -1.46811,5.51195 v 5.45299 h -37.19221 c -20.45569,0 -37.44383,-0.25175 -37.75146,-0.55929 z m 105.29206,-1.37667 c -1.53397,-1.01155 -2.66652,-2.10137 -2.51676,-2.42181 0.14959,-0.32043 -1.02875,-1.92485 -2.61883,-3.56541 -1.959,-2.02117 -3.64942,-2.98284 -5.24328,-2.98284 -3.03308,0 -3.06968,-1.48382 -0.045,-1.83186 1.41624,-0.16302 2.21393,-0.70675 2.06588,-1.40836 -0.13248,-0.62859 0.33337,-1.57236 1.03557,-2.09728 1.32238,-0.98856 0.94843,-4.72955 -0.47282,-4.72955 -0.40759,0 -0.74109,-2.80508 -0.74109,-6.23356 0,-5.79741 -0.13213,-6.25901 -1.88757,-6.59714 l -1.88756,-0.36355 1.88756,-0.11416 c 1.86141,-0.11258 1.89014,-0.29171 2.07061,-12.90781 0.31974,-22.34852 -0.0711,-20.08237 4.32925,-25.09951 3.46601,-3.95177 3.72471,-4.50366 2.22198,-4.74054 -2.97715,-0.46928 -1.83385,-1.58294 2.19152,-2.13467 2.14071,-0.2933 17.14693,-0.52147 33.34713,-0.50681 23.16283,0.0222 29.76849,0.26476 30.92299,1.14114 1.89634,1.43954 1.85329,2.00841 -0.17692,2.33927 -1.4807,0.2413 -1.34798,0.62442 1.32795,3.83347 2.88343,3.45793 3.12272,3.56541 7.93703,3.56541 2.73016,0 4.96394,0.33716 4.96394,0.74919 0,1.06099 -2.18607,1.76759 -5.46844,1.76759 h -2.81443 l -0.43768,21.18277 c -0.24067,11.65052 -0.53464,22.12656 -0.65311,23.28007 -0.11852,1.15351 0.0688,3.83215 0.41647,5.95248 l 0.63187,3.85512 -6.03795,6.00219 -6.03799,6.00219 -27.76056,-0.0482 c -27.12424,-0.0473 -27.8245,-0.0904 -30.54958,-1.88759 z m 50.33173,-16.23089 c 1.40584,-1.27229 1.53417,-3.08816 1.53417,-21.70925 0,-17.89266 -0.16617,-20.45841 -1.38955,-21.47221 -2.15101,-1.78236 -37.03831,-1.84067 -39.08841,-0.0653 -1.32216,1.14494 -1.46813,3.27437 -1.46813,21.41911 0,17.57043 0.17757,20.34402 1.38843,21.68194 1.26309,1.39573 3.0173,1.53415 19.43887,1.53415 15.61885,0 18.25711,-0.18707 19.58462,-1.38839 z m 41.80241,3.59923 c 0,-17.31161 -0.3538,-19.79869 -2.83137,-19.90384 -1.16981,-0.0497 -0.77322,-0.36063 1.15351,-0.9046 1.61495,-0.45592 3.2949,-1.17688 3.73321,-1.60217 0.43836,-0.42529 1.63439,-0.77325 2.65789,-0.77325 2.41741,0 4.5149,-0.82119 4.5149,-1.76761 0,-0.41204 -0.58855,-0.74915 -1.3079,-0.74915 -0.71934,0 -1.07294,-0.3802 -0.78574,-0.84483 0.28728,-0.46469 -0.066,-1.07052 -0.78459,-1.34634 -2.63093,-1.00956 -0.24478,-2.00351 4.81532,-2.00583 2.85653,-0.002 8.40261,-0.35917 12.32459,-0.79532 3.92193,-0.43616 12.22727,-1.21575 18.45625,-1.73245 14.8178,-1.22912 15.10059,-1.37824 15.10059,-7.96346 0,-4.81922 -0.15919,-5.25308 -2.30706,-6.28489 -1.55333,-0.74624 -7.45602,-1.23452 -18.06818,-1.49465 -14.24993,-0.34933 -15.91902,-0.24351 -17.40761,1.10366 -0.90556,0.81951 -1.64647,2.37528 -1.64647,3.45729 0,1.93888 -0.12707,1.96728 -8.80866,1.96728 h -8.80868 v -5.03353 c 0,-4.92904 -0.0478,-5.03374 -2.30702,-5.04496 -3.1476,-0.0157 -6.08221,-0.86688 -6.08221,-1.76422 0,-0.40761 1.93137,-0.74111 4.29194,-0.74111 3.60335,0 4.94935,-0.48255 8.38924,-3.00765 2.2535,-1.65423 4.09728,-3.48329 4.09728,-4.06459 0,-0.58132 0.69036,-1.68168 1.53415,-2.44533 1.36243,-1.233 4.63875,-1.38839 29.26933,-1.38839 26.34811,0 27.83417,0.0824 29.71565,1.64991 1.83347,1.52743 1.85855,1.65202 0.3377,1.67786 -2.99334,0.0508 5.12295,7.44259 8.50444,7.7452 3.66432,0.32795 3.99755,1.85393 0.47893,2.1932 l -2.72651,0.26285 v 11.6456 11.64561 l -3.98487,3.76859 -3.98488,3.7686 2.09732,0.83843 c 2.05415,0.82119 2.05806,0.83955 0.19055,0.89162 -1.04871,0.0285 -9.16526,0.7829 -18.0368,1.67476 -8.87157,0.89188 -19.52775,1.88145 -23.68042,2.1991 -10.29135,0.78713 -10.48652,0.92715 -10.48652,7.52324 v 5.41246 l 28.73308,0.22069 28.73306,0.22068 0.25525,2.20157 c 0.14051,1.21087 -0.33151,2.78834 -1.04866,3.50549 -1.73443,1.73444 -1.72741,5.61839 0.009,5.61839 0.93865,0 1.23827,0.65917 1.04865,2.30704 l -0.2654,2.30705 -37.54172,0.21845 -37.54174,0.21846 v -14.58486 z m 105.28464,13.68054 c -1.84562,-0.38172 -5.62077,-0.77626 -8.38921,-0.87671 -2.94281,-0.10682 -3.81393,-0.29582 -2.09729,-0.4548 8.33895,-0.77319 14.14482,-2.14323 13.72449,-3.23868 -0.23814,-0.62087 -1.99981,-1.39355 -3.91458,-1.71702 -5.96938,-1.00855 -7.29316,-2.39758 -7.29316,-7.65287 0,-2.87996 0.31485,-4.37242 0.85261,-4.04014 0.46892,0.28981 0.63542,0.87835 0.36994,1.3079 -0.26539,0.4295 -0.0827,0.78095 0.40579,0.78095 1.61582,0 0.92474,-3.15051 -0.78942,-3.59878 -0.97938,-0.25619 -1.67782,-1.14428 -1.67782,-2.13361 0,-0.93219 -0.66065,-1.86753 -1.46812,-2.07855 -1.39822,-0.36538 -1.39822,-0.38828 0,-0.48095 1.3554,-0.0897 1.46812,-1.66778 1.46812,-20.55307 0,-19.75018 -0.0581,-20.47084 -1.67785,-20.89449 -2.42455,-0.63402 -2.06323,-2.2737 0.50102,-2.2737 1.54311,0 3.82701,-1.59113 7.82721,-5.45298 l 5.64829,-5.45298 h 30.69458 c 16.88202,0 31.29174,0.22924 32.02158,0.50922 2.31678,0.88903 1.43871,1.96984 -2.05404,2.52836 l -3.38104,0.54065 3.71638,3.66386 c 2.04401,2.01513 4.48697,3.66387 5.42883,3.66387 0.94186,0 1.94578,0.37754 2.23095,0.83894 0.29393,0.4758 -0.41076,0.83892 -1.62833,0.83892 -2.0169,0 -2.14683,0.25397 -2.14683,4.19461 v 4.19459 h -8.46447 c -7.76626,0 -8.59043,-0.15569 -9.99148,-1.88756 -1.48589,-1.83678 -2.01614,-1.89448 -19.70679,-2.14409 -13.05512,-0.18422 -18.51552,0.0222 -19.37076,0.7319 -0.86627,0.71894 -1.19099,3.03453 -1.19099,8.49315 v 7.5047 l 2.43654,-1.73499 c 2.31461,-1.64815 3.53938,-1.73497 24.47341,-1.73497 h 22.03691 l 4.50488,4.61409 4.50487,4.61407 h 6.2564 c 7.56713,0 8.38764,1.49624 1.01312,1.84752 l -5.24325,0.24985 -0.52075,4.19461 c -0.28631,2.30707 -0.32292,8.2776 -0.0812,13.26789 l 0.43959,9.07328 4.47296,-0.20705 c 6.75181,-0.31264 6.22412,0.613 -0.71715,1.25812 -5.45538,0.50703 -6.39997,0.86915 -9.07145,3.4778 -1.79871,1.7564 -3.81685,2.91185 -5.08587,2.91185 -1.15716,0 -2.46254,0.34088 -2.90087,0.75747 -0.43835,0.41664 -1.55201,0.93911 -2.47481,1.16107 -1.02316,0.24605 -0.53215,0.44657 1.25836,0.51375 2.22421,0.0834 2.63108,0.30724 1.67785,0.92338 -1.53713,0.99338 -51.79845,0.95067 -56.6272,-0.0482 z M 599.86131,511.919 c 1.58268,-1.68463 1.86183,-2.78827 1.6447,-6.50163 -0.17246,-2.95015 -0.82138,-5.11506 -1.90624,-6.36011 -1.61571,-1.85434 -1.98206,-1.88759 -20.79363,-1.88759 h -19.14897 v 6.61353 c 0,7.19653 0.31812,7.60679 5.92183,7.63669 1.18069,0.007 2.87951,0.56573 3.77514,1.24316 1.2712,0.96148 4.58708,1.23757 15.11469,1.25839 13.19599,0.0253 13.52727,-0.0157 15.39248,-2.00244 z m -264.80943,7.32019 c 0.81626,-0.21276 1.94879,-0.19879 2.51675,0.0318 0.56801,0.22988 -0.0998,0.40382 -1.48405,0.38673 -1.38421,-0.0157 -1.84895,-0.20515 -1.0327,-0.41784 z M 221.15232,508.07567 c -0.31707,-0.51302 0.98656,-0.83894 3.35568,-0.83894 2.36917,0 3.67276,0.32592 3.35571,0.83894 -0.28504,0.4614 -1.79522,0.83891 -3.35571,0.83891 -1.56044,0 -3.0705,-0.37751 -3.35568,-0.83891 z M 634.3212,491.29722 c 0,-1.05108 0.89027,-1.05108 2.51675,0 1.01759,0.65762 0.89717,0.81567 -0.62919,0.82607 -1.03817,0.007 -1.88756,-0.36466 -1.88756,-0.82607 z m -7.13085,-28.52332 c 0.28949,-0.46825 4.20331,-0.83894 8.85819,-0.83894 5.00052,0 8.3397,0.33591 8.3397,0.83894 0,0.50632 -3.51202,0.83892 -8.85818,0.83892 -5.69183,0 -8.67285,-0.29995 -8.33971,-0.83892 z M 203.11552,220.37511 c 0,-4.12544 0.37754,-7.73411 0.83895,-8.01929 0.4614,-0.28504 0.83891,-1.62873 0.83891,-2.98573 0,-1.35698 -0.37751,-2.46724 -0.83891,-2.46724 -0.52986,0 -0.83895,-5.87245 -0.83895,-15.93951 v -15.93952 h -7.84669 c -13.38059,0 -21.8971,-1.4171 -16.69175,-2.77741 1.39819,-0.36535 1.39819,-0.38828 0,-0.48095 -1.05034,-0.0698 -1.46811,-0.81352 -1.46811,-2.61409 0,-2.4018 -0.16298,-2.5167 -3.56542,-2.51567 -1.96097,5.6e-4 -6.7743,-0.45744 -10.69627,-1.01782 -8.72901,-1.2472 -6.44662,-2.08766 6.08219,-2.23971 7.54237,-0.0916 8.1795,-0.22796 8.1795,-1.75032 0,-1.61752 0.67755,-1.64735 33.34714,-1.46812 l 33.3471,0.18296 0.25176,4.3515 c 0.21466,3.71296 0.52256,4.40518 2.09731,4.71731 l 1.84554,0.36577 -1.88755,0.62382 c -1.25501,0.41477 -1.88758,1.29388 -1.88758,2.62327 v 1.99946 h -13.00327 -13.00331 v 4.19461 c 0,3.42588 0.26919,4.19929 1.46811,4.22011 1.35583,0.0222 1.35039,0.0939 -0.071,0.9204 -1.19288,0.69357 -1.49883,1.77314 -1.35982,4.79829 0.0986,2.14687 0.13056,11.73683 0.071,21.31104 l -0.1084,17.4076 h -7.55029 -7.55029 z m 65.60485,6.09876 c -1.61717,-0.79702 -3.23775,-2.48982 -3.8993,-4.07312 -0.62259,-1.49008 -1.54804,-2.9664 -2.05653,-3.28065 -0.60435,-0.37352 -0.92452,-4.7668 -0.92452,-12.68624 v -12.11484 l -3.98487,-0.0993 -3.98488,-0.0991 3.98488,-0.83053 c 3.59712,-0.74967 3.98487,-1.05705 3.98487,-3.15866 0,-1.62421 0.50836,-2.46109 1.68131,-2.76782 1.89422,-0.49534 1.46312,-3.11173 -0.51267,-3.11173 -0.90151,0 -1.16864,-1.53406 -1.16864,-6.71135 0,-6.08409 -0.15221,-6.71138 -1.62834,-6.71138 -0.89556,0 -1.86162,-0.3775 -2.1468,-0.8389 -0.30787,-0.49841 0.6765,-0.83896 2.42558,-0.83896 1.63048,0 3.24336,-0.5197 3.61491,-1.16485 0.36898,-0.64068 1.42591,-1.30518 2.34872,-1.47667 2.06368,-0.38354 2.8764,-4.06983 0.89729,-4.06983 -2.60698,0 -1.24807,-1.46967 1.82922,-1.9783 5.94204,-0.98217 55.34433,-0.6092 57.63636,0.43511 2.4425,1.11289 2.81982,2.38211 0.70814,2.38211 -1.05169,0 -0.61251,0.83576 1.66445,3.16762 l 3.0931,3.16761 0.22322,23.87967 0.22323,23.87966 2.51675,0.53788 2.51678,0.53785 -2.9649,0.0993 c -2.41942,0.0808 -3.80314,0.94808 -7.52162,4.71332 l -4.55675,4.61407 -25.61577,-0.019 c -21.92925,-0.0157 -26.01401,-0.21529 -28.38303,-1.38292 z m 47.45287,-14.74724 c 0.9482,-1.17298 1.45983,-30.42654 0.57257,-32.73871 -0.30629,-0.79846 -1.43327,-1.44734 -2.51343,-1.44734 -2.21299,0 -3.45482,-1.31343 -1.85257,-1.95941 1.47023,-0.59273 -21.07652,-0.45032 -28.72784,0.18136 l -6.29189,0.51956 0.10054,7.88494 0.10054,7.88493 2.77511,0.30375 c 4.0449,0.44283 4.14609,1.12422 0.16704,1.12422 h -3.4286 l 0.0571,8.83636 c 0.0463,7.1778 0.30946,8.98381 1.40121,9.62205 2.14649,1.25473 36.61185,1.0607 37.64059,-0.2118 z m 38.53859,15.62112 c -0.32475,-0.32474 -0.59044,-12.41923 -0.59044,-26.87664 0,-25.72692 -0.0358,-26.28621 -1.67786,-26.28621 -0.92281,0 -1.67782,-0.3775 -1.67782,-0.8389 0,-0.4614 0.75501,-0.83895 1.67782,-0.83895 1.35162,0 1.67786,-0.55928 1.67786,-2.8763 0,-1.58197 0.56625,-3.44258 1.25839,-4.13468 1.63759,-1.63762 1.60516,-3.05608 -0.0698,-3.05608 -0.73057,0 -1.17114,-0.4719 -0.97903,-1.04864 0.50358,-1.51195 52.40901,-1.92971 60.61234,-0.48787 5.27711,0.92758 5.57667,1.07905 2.95494,1.49409 l -2.91752,0.46188 3.12726,3.4574 3.12726,3.45735 v 13.69463 13.69463 l -2.29232,2.39261 c -1.77579,1.85356 -2.0402,2.54848 -1.17339,3.08417 1.33221,0.82338 -2.10625,1.67473 -9.32849,2.30968 l -4.82442,0.42416 8.09926,8.73415 c 5.27509,5.68854 8.71256,8.73858 9.85795,8.74696 1.42851,0.009 1.52376,0.16146 0.50733,0.80399 -0.99661,0.63005 -1.0393,1.00319 -0.2096,1.83278 0.57289,0.57289 1.04162,1.34365 1.04162,1.71277 0,0.36914 -4.09768,0.67114 -9.10601,0.67114 h -9.10597 l -5.21914,-5.87245 c -2.8705,-3.22986 -5.68157,-5.87246 -6.24679,-5.87246 -1.49365,0 -5.54259,-1.98897 -5.55027,-2.72648 -0.003,-0.34604 0.79228,-0.6292 1.76864,-0.6292 1.62904,0 1.54269,-0.27046 -1.04866,-3.28465 l -2.8238,-3.28468 -8.15442,-0.071 -8.15445,-0.071 -0.23463,10.69623 -0.23463,10.69625 -6.7501,0.24098 c -3.71257,0.13249 -7.01583,-0.0253 -7.34058,-0.34953 z m 50.62798,-36.4272 c 0.42295,-0.66858 0.77481,-3.71665 0.78188,-6.77344 0.0122,-5.50799 -0.009,-5.56238 -2.50393,-6.06122 -1.47613,-0.2952 -2.51675,-1.03234 -2.51675,-1.78271 0,-1.10165 -2.21423,-1.27936 -15.93955,-1.27936 h -15.93949 v 8.9129 8.91293 l 17.67439,-0.35678 c 14.23767,-0.28726 17.82396,-0.59312 18.44345,-1.57232 z m 42.43514,35.69179 c -1.32158,-0.68929 -2.92603,-1.25324 -3.56537,-1.25324 -0.63938,0 -1.16252,-0.5348 -1.16252,-1.18847 0,-0.65366 -0.47188,-1.34728 -1.04862,-1.54143 -0.82763,-0.2787 -0.81668,-0.63402 0.052,-1.68651 0.86558,-1.04887 1.08537,-7.70511 1.02944,-31.17651 l -0.071,-29.84295 h 7.0867 7.0867 l 11.59849,13.07608 c 6.37918,7.19183 13.76118,15.72129 16.40445,18.95436 2.64325,3.23305 5.9401,7.17008 7.32637,8.74891 l 2.52043,2.87062 0.22384,-21.61525 0.22386,-21.61524 7.34058,-0.24224 7.34055,-0.24224 0.18041,14.08459 c 0.0993,7.74653 0.0993,21.40059 0,30.34242 -0.0991,8.94181 -0.18041,17.9078 -0.18041,19.92438 v 3.66657 h -6.55693 -6.55698 l -7.49499,-8.44594 c -4.12224,-4.64522 -9.55718,-10.77986 -12.07765,-13.63247 -2.52996,-2.86332 -5.63012,-5.47914 -6.92109,-5.83972 -1.68054,-0.46941 -2.33842,-1.18927 -2.33842,-2.55868 0,-1.10722 -2.0209,-4.26592 -4.82381,-7.5398 l -4.82379,-5.63429 -0.22353,21.82545 -0.22354,21.82545 -3.97095,-0.007 c -2.18403,-0.002 -5.05227,-0.56911 -6.37389,-1.25837 z m 85.87566,-28.50757 c 0,-25.92279 0.1632,-29.7923 1.25836,-29.7923 0.69212,0 1.27039,-0.66065 1.28507,-1.46812 0.0372,-2.04252 1.98438,-4.40436 3.63121,-4.40436 0.7566,0 1.28126,-0.47186 1.16591,-1.04864 -0.16426,-0.82117 5.52289,-1.04864 26.2163,-1.04864 h 26.42601 l 0.25365,4.40433 c 0.23275,4.04452 0.42133,4.40433 2.30705,4.40433 1.12943,0 2.05347,0.37752 2.05347,0.83892 0,0.4614 -0.91752,0.83894 -2.03896,0.83894 -1.47576,0 -2.11301,0.52136 -2.30704,1.88757 l -0.26791,1.88756 -22.44114,0.22353 -22.44117,0.22354 v 6.27821 6.27822 h 20.13412 20.13412 v 2.93622 c 0,2.5727 0.25968,2.93621 2.0973,2.93621 2.64546,0 2.82597,2.2966 0.20958,2.66815 -1.35152,0.19183 -1.96297,0.92327 -2.15302,2.57514 l -0.26538,2.30702 h -20.0784 -20.07839 v 5.87243 5.87244 h 20.02923 c 11.01609,0 21.22345,0.23875 22.68303,0.53076 l 2.65374,0.53073 -0.24192,6.80985 -0.24193,6.80979 -29.99144,0.22037 -29.99142,0.22037 z m 84.73105,27.67379 c -1.10199,-1.17301 -1.51097,-2.0973 -0.92801,-2.0973 2.11351,0 -2.39833,-4.81843 -5.13369,-5.48254 l -2.74697,-0.6669 2.30704,-0.33671 c 1.79253,-0.26158 2.30705,-0.79198 2.30705,-2.37823 0,-1.12287 0.45299,-2.0416 1.00669,-2.0416 0.78298,0 0.78298,-0.22386 0,-1.00671 -0.6518,-0.65177 -1.00669,-4.03249 -1.00669,-9.58921 0,-8.23344 -0.0768,-8.59734 -1.88761,-8.94612 -1.36819,-0.26349 -1.13902,-0.39501 0.8329,-0.47783 2.61911,-0.10997 2.71556,-0.23907 2.58898,-3.46992 -0.0723,-1.84561 -0.44713,-3.35567 -0.83288,-3.35567 -0.38579,0 -0.70139,-3.39766 -0.70139,-7.55029 v -7.5503 h -2.88673 c -1.58768,0 -3.12003,-0.37754 -3.4052,-0.83894 -0.31549,-0.51029 0.91517,-0.83892 3.14161,-0.83892 3.0388,0 4.11523,-0.46957 6.34143,-2.76643 3.05541,-3.15239 3.29409,-3.93382 1.21322,-3.97161 -1.32841,-0.0253 -1.31317,-0.144 0.16041,-1.25839 1.35346,-1.02371 6.18463,-1.23171 28.60789,-1.23171 17.42536,0 27.91499,0.32616 29.62138,0.92099 2.67018,0.93084 3.40643,2.04005 1.72585,2.60023 -0.50383,0.16809 0.34558,1.87874 1.88756,3.80177 2.49346,3.10956 3.20494,3.50118 6.43059,3.5397 2.98872,0.0354 3.57795,0.30154 3.34845,1.51142 -0.20325,1.07092 -1.2411,1.5379 -3.83665,1.72609 l -3.55818,0.25808 v 21.71591 21.7159 l -4.70446,5.08133 -4.70439,5.08134 h -26.60891 -26.6089 z m 48.25972,-13.87739 c 0.2971,-0.48074 0.50505,-7.46473 0.46202,-15.52004 -0.0498,-9.3369 0.22829,-14.64593 0.76767,-14.64593 1.49382,0 0.90226,-3.88358 -0.83042,-5.45159 -1.54326,-1.39664 -3.08059,-1.47869 -19.36975,-1.0342 -9.7314,0.26571 -17.84257,0.63194 -18.02476,0.81415 -0.56638,0.56636 -0.52567,34.92355 0.0424,35.84282 0.73768,1.19358 36.21501,1.18861 36.9528,-0.007 z m 28.64144,-38.27554 c -1.93131,-1.9313 2.06288,-2.54502 9.05201,-1.39088 2.66922,0.44075 2.99786,0.6739 1.67785,1.1902 -2.05659,0.80434 -9.97802,0.95251 -10.72986,0.2007 z M 524.21271,160.98681 c 1.96101,-0.17661 5.16987,-0.17661 7.13085,0 1.961,0.17661 0.35655,0.32114 -3.56542,0.32114 -3.92194,0 -5.52638,-0.14453 -3.56543,-0.32114 z"
       id="path302-3"
       sodipodi:nodetypes="sssssssccccsssssssssssscscsscsscsscccssssscssssscssssssssssssscssssscsssssscssccccsssssssssssscsssssssccsssssssscscsssssssssscccccscssscccssssccccccscsssssssssssssscscscssssscssssscsscccssccscsssssssscccssscssscccccccssssssscssssssccssscsscssscssccscsscccscssscccccssscccsssssscssssssssccccccscccccsssccccsscsscccsssssssssscccccssscscsssscsscsscccccsccsssssccccscssssscccssscccccssscccsssssccccccssssssccsssscccccccsssscccccsscccccsssscsssssssssscsssscssssscsscccccccscssscssccsssssssss" /></g></svg>
